<?xml version="1.0" encoding="UTF-8"?>
<svg id="master-artboard" xmlns="http://www.w3.org/2000/svg" viewBox="0 0 500 127">
  <defs>
    <style>
      .cls-1 {
        fill: #417c7a;
      }

      .cls-2 {
        fill: #90c4a7;
      }

      .cls-3 {
        fill: #0c2a2c;
      }

      .cls-4 {
        fill: #183d4d;
      }
    </style>
  </defs>
  <path class="cls-3" d="M42.7,17.2h-.7c-5.1-.1-10,2.5-12.5,6.8h-.1l-12.5,21.9h-3v-4.7s.1-2.5-1.5-2.3c-.3,0-.7,0-.8,.1-2.4,.6-6.6,1.8-6.6,1.8-1,.5-1.8,1.4-1.7,2.5v3.3s-.1,1,2.2,1.3H15.3c0,.1-8.3,8.7-8.3,8.7,0,0-3.2,2.6-2.2,13.3,.8,10.7,2.1,36.9,2.1,36.9,0,0-.1,4.4,2.8,4.6h3.2l.1,.1h.7l.1-.1h18.2c0,.1,.1,.1,.3,.1,1-.1,1.9-.7,2.5-1.3,.8-.9,.7-6,.7-6,0,0,0-.7,2.1-.7H107.5c2.1,0,2.1,.7,2.1,.7,0,0-.3,5,.7,6,.7,.7,1.5,1,2.5,1.3,.1,0,.3,0,.3-.1h18.3l.3,.1h.7l.1-.1h3c3-.1,2.8-4.6,2.8-4.6,0,0,1.1-26.3,2.1-36.9,.8-10.7-2.1-13.3-2.1-13.3,0,0-8.3-8.7-8.3-8.9h9.7c2.5-.1,2.2-1.3,2.2-1.3v-3.3c.1-1-.7-2.1-1.7-2.5,0,0-4.2-1-6.5-1.8-.3-.1-.6-.1-.7-.1-1.8-.1-1.5,2.3-1.5,2.3v4.7h-3.2l-12.6-21.9h0c-2.5-4.3-7.5-6.9-12.6-6.8h-.7c-8,.3-16.6,.5-25.2,.5h-9.3c-8.5,.2-17.1,0-25.2-.3h0Zm12.1,73.8c-1.7,0-3-1.2-3-2.7h0c0-1.6,1.4-2.9,3-2.9h35.6c1.7,0,2.9,1.3,2.9,2.9h0c0,1.6-1.4,2.9-3,2.9h0l-35.5-.2h0Zm-5.3-12.4c-1.9,0-2.6-1.8-3.5-3.5l-4.8-9c-1-1.7,1.7-3.5,3.5-3.5h55.8c1.9,.1,4.4,1.8,3.5,3.5l-4.8,9c-.8,1.7-1.7,3.5-3.5,3.5H49.5Zm57.9-6.9c.6-2.2,1.1-5.2,2.6-6.1,2.1-2.2,9.6-4.6,15-4.6h.7c4,.1,12.1,4.2,7.5,8.3-1.4,1.3-3.2,2.1-5,2.5l-20.8-.1Zm-34.5,31.8h0m-54.7-29.1c-1.8-.4-3.6-1.2-5-2.5-4.6-4.1,3.5-8.2,7.5-8.3h.7c5.4,0,12.9,2.4,15,4.6,1.5,.9,2,3.9,2.6,6.1l-20.8,.1Z"/>
  <g>
    <path class="cls-2" d="M415.4,15.5h32.8V89h51.2v24h-84V15.5Z"/>
    <path class="cls-1" d="M381.6,75.8l-11.7-35-11.6,35h23.3Zm6.8,21.1h-37.3l-5.1,16.1h-33.5L352.4,15.6h35.8l39.9,97.4h-34.4l-5.3-16.1Z"/>
    <path class="cls-4" d="M233.3,15.5h87.9v20.8h-55v15.5h51.1v19.9h-51.1v19.2h56.6v22.1h-89.5V15.5h0Z"/>
    <path class="cls-3" d="M147.4,15.5h48.7c9.6,0,17.4,1.2,23.3,3.6,5.9,2.4,10.8,5.8,14.7,10.3s6.7,9.7,8.4,15.6,2.6,12.2,2.6,18.9c0,10.4-1.3,18.5-3.9,24.2-2.6,5.7-6.2,10.5-10.8,14.4s-9.5,6.5-14.8,7.7c-7.2,1.8-13.7,2.7-19.6,2.7h-48.7V15.5h.1Zm32.8,22.1v53.2h8c6.9,0,11.7-.7,14.6-2.1,2.9-1.4,5.2-3.8,6.8-7.3s2.5-9.1,2.5-16.9c0-10.3-1.8-17.4-5.5-21.2s-9.8-5.7-18.3-5.7h-8.1Z"/>
  </g>
</svg>