<?xml version="1.0" encoding="UTF-8"?>
<svg id="master-artboard" xmlns="http://www.w3.org/2000/svg" viewBox="0 0 457 323.2">
  <defs>
    <style>
      .cls-1 {
        fill: #417c7a;
      }

      .cls-2 {
        fill: #90c4a7;
      }

      .cls-3 {
        fill: #0c2a2c;
      }

      .cls-4 {
        fill: #183d4d;
      }
    </style>
  </defs>
  <path class="cls-1" d="M243.9,173.2h0M174.3,.4h-1.3c-9.3-.2-18.3,4.6-22.9,12.5h-.2l-22.9,40.1h-5.5v-8.6s.2-4.6-2.7-4.2c-.5,0-1.3,0-1.5,.2-4.4,1.1-12.1,3.3-12.1,3.3-1.8,.9-3.3,2.6-3.1,4.6v6s-.2,1.8,4,2.4h18c0,.2-15.2,15.9-15.2,15.9,0,0-5.9,4.8-4,24.4,1.5,19.6,3.8,67.6,3.8,67.6,0,0-.2,8.1,5.1,8.4h5.9l.2,.2h1.3l.2-.2h33.4c0,.2,.2,.2,.5,.2,1.8-.2,3.5-1.3,4.6-2.4,1.5-1.6,1.3-11,1.3-11,0,0,0-1.3,3.8-1.3h128.1c3.8,0,3.8,1.3,3.8,1.3,0,0-.5,9.2,1.3,11,1.3,1.3,2.7,1.8,4.6,2.4,.2,0,.5,0,.5-.2h33.5l.5,.2h1.3l.2-.2h5.5c5.5-.2,5.1-8.4,5.1-8.4,0,0,2-48.2,3.8-67.6,1.5-19.6-3.8-24.4-3.8-24.4,0,0-15.1-16-15.1-16.3h17.8c4.6-.2,4-2.4,4-2.4v-6c.2-1.8-1.3-3.8-3.1-4.6,0,0-7.7-1.8-11.9-3.3-.5-.2-1.1-.2-1.3-.2-3.3-.2-2.7,4.2-2.7,4.2v8.6h-5.9l-23.1-40.1h0C303.5,4.6,294.4-.1,285,0h-1.3c-14.7,.5-30.4,.9-46.2,.9h-17c-15.6,.4-31.4,0-46.2-.5h0Zm22.7,135.2c-3.1,0-5.5-2.2-5.5-4.9h0c0-2.9,2.6-5.3,5.5-5.3h65.3c3.1,0,5.3,2.4,5.3,5.3h0c0,2.9-2.6,5.3-5.5,5.3h0l-65.1-.4h0Zm-10.2-22.7c-3.5,0-4.8-3.3-6.4-6.4l-8.8-16.5c-1.8-3.1,3.1-6.4,6.4-6.4h102.3c3.5,.2,8.1,3.3,6.4,6.4l-8.8,16.5c-1.5,3.1-3.1,6.4-6.4,6.4h-84.7Zm106.1-12.7c1.1-4,2-9.5,4.8-11.2,3.8-4,17.6-8.4,27.5-8.4h1.3c7.3,.2,22.2,7.7,13.7,15.2-2.6,2.4-5.9,3.8-9.2,4.6l-38.1-.2Zm-63.3,58.3h0m-100.3-53.3c-3.3-.7-6.6-2.2-9.2-4.6-8.4-7.5,6.4-15,13.7-15.2h1.3c9.9,0,23.6,4.4,27.5,8.4,2.7,1.6,3.7,7.1,4.8,11.2l-38.1,.2Z"/>
  <g>
    <path class="cls-3" d="M347.9,200.2h42.6v92.6h66.5v30.3h-109.1v-122.9Z"/>
    <path class="cls-4" d="M304.1,276.2l-15.2-44.2-15.1,44.2h30.3Zm8.8,26.6h-48.4l-6.7,20.3h-43.5l51.8-122.9h46.5l51.8,122.9h-44.6l-6.9-20.3Z"/>
    <path class="cls-1" d="M111.6,200.2h114.2v26.2h-71.5v19.5h66.3v25.1h-66.3v24.2h73.5v27.8H111.6v-122.8Z"/>
    <path class="cls-2" d="M0,200.2H63.3c12.5,0,22.6,1.5,30.2,4.5,7.7,3,14,7.3,19,13,5,5.6,8.7,12.2,10.9,19.7,2.3,7.5,3.4,15.4,3.4,23.8,0,13.1-1.7,23.3-5,30.6-3.4,7.2-8,13.3-14,18.2-6,4.9-12.4,8.1-19.2,9.8-9.3,2.2-17.8,3.4-25.4,3.4H0v-123Zm42.6,27.8v67.1h10.4c8.9,0,15.2-.9,19-2.6s6.7-4.8,8.8-9.2c2.1-4.4,3.2-11.5,3.2-21.3,0-13-2.4-21.9-7.1-26.7-4.8-4.8-12.7-7.2-23.7-7.2l-10.6-.1h0Z"/>
  </g>
</svg>